{
 "cells": [
  {
   "cell_type": "code",
   "execution_count": 1,
   "id": "e214b066-62c5-4ff7-93d0-8f1dc89acdc4",
   "metadata": {},
   "outputs": [],
   "source": [
    "from pathlib import Path\n",
    "import subprocess"
   ]
  },
  {
   "cell_type": "code",
   "execution_count": 10,
   "id": "0ae0c069-0b7d-4b84-9e46-7fe326de9906",
   "metadata": {},
   "outputs": [],
   "source": [
    "folder = Path(\"/Users/louifh/Dev/opensoundscape/docs/tutorials/great_plains_toad_dataset/\")"
   ]
  },
  {
   "cell_type": "code",
   "execution_count": 11,
   "id": "35c23530-6ea1-49d0-975a-a1d1378079cd",
   "metadata": {},
   "outputs": [
    {
     "name": "stdout",
     "output_type": "stream",
     "text": [
      "/Users/louifh/Dev/opensoundscape/docs/tutorials/great_plains_toad_dataset/pops1.mp3\n",
      "/Users/louifh/Dev/opensoundscape/docs/tutorials/great_plains_toad_dataset/gpt4.mp3\n",
      "/Users/louifh/Dev/opensoundscape/docs/tutorials/great_plains_toad_dataset/pops2.mp3\n",
      "/Users/louifh/Dev/opensoundscape/docs/tutorials/great_plains_toad_dataset/gpt1.mp3\n",
      "/Users/louifh/Dev/opensoundscape/docs/tutorials/great_plains_toad_dataset/gpt0.mp3\n",
      "/Users/louifh/Dev/opensoundscape/docs/tutorials/great_plains_toad_dataset/negative9.mp3\n"
     ]
    },
    {
     "name": "stderr",
     "output_type": "stream",
     "text": [
      "ffmpeg version 4.4.1 Copyright (c) 2000-2021 the FFmpeg developers\n",
      "  built with Apple clang version 13.0.0 (clang-1300.0.29.3)\n",
      "  configuration: --prefix=/opt/homebrew/Cellar/ffmpeg/4.4.1_3 --enable-shared --enable-pthreads --enable-version3 --cc=clang --host-cflags= --host-ldflags= --enable-ffplay --enable-gnutls --enable-gpl --enable-libaom --enable-libbluray --enable-libdav1d --enable-libmp3lame --enable-libopus --enable-librav1e --enable-librist --enable-librubberband --enable-libsnappy --enable-libsrt --enable-libtesseract --enable-libtheora --enable-libvidstab --enable-libvmaf --enable-libvorbis --enable-libvpx --enable-libwebp --enable-libx264 --enable-libx265 --enable-libxml2 --enable-libxvid --enable-lzma --enable-libfontconfig --enable-libfreetype --enable-frei0r --enable-libass --enable-libopencore-amrnb --enable-libopencore-amrwb --enable-libopenjpeg --enable-libspeex --enable-libsoxr --enable-libzmq --enable-libzimg --disable-libjack --disable-indev=jack --enable-avresample --enable-videotoolbox\n",
      "  libavutil      56. 70.100 / 56. 70.100\n",
      "  libavcodec     58.134.100 / 58.134.100\n",
      "  libavformat    58. 76.100 / 58. 76.100\n",
      "  libavdevice    58. 13.100 / 58. 13.100\n",
      "  libavfilter     7.110.100 /  7.110.100\n",
      "  libavresample   4.  0.  0 /  4.  0.  0\n",
      "  libswscale      5.  9.100 /  5.  9.100\n",
      "  libswresample   3.  9.100 /  3.  9.100\n",
      "  libpostproc    55.  9.100 / 55.  9.100\n",
      "Input #0, mp3, from '/Users/louifh/Dev/opensoundscape/docs/tutorials/great_plains_toad_dataset/pops1.mp3':\n",
      "  Metadata:\n",
      "    comment         : Recorded at 02:40:02 18/05/2019 (UTC) by AudioMoth 0FE081F80FE081F0 at gain setting 2 while battery state was 3.8V\n",
      "    encoder         : Lavf58.20.100\n",
      "  Duration: 00:00:10.03, start: 0.023021, bitrate: 64 kb/s\n",
      "  Stream #0:0: Audio: mp3, 48000 Hz, mono, fltp, 64 kb/s\n",
      "File 'pops1.wav' already exists. Overwrite? [y/N] Not overwriting - exiting\n",
      "ffmpeg version 4.4.1 Copyright (c) 2000-2021 the FFmpeg developers\n",
      "  built with Apple clang version 13.0.0 (clang-1300.0.29.3)\n",
      "  configuration: --prefix=/opt/homebrew/Cellar/ffmpeg/4.4.1_3 --enable-shared --enable-pthreads --enable-version3 --cc=clang --host-cflags= --host-ldflags= --enable-ffplay --enable-gnutls --enable-gpl --enable-libaom --enable-libbluray --enable-libdav1d --enable-libmp3lame --enable-libopus --enable-librav1e --enable-librist --enable-librubberband --enable-libsnappy --enable-libsrt --enable-libtesseract --enable-libtheora --enable-libvidstab --enable-libvmaf --enable-libvorbis --enable-libvpx --enable-libwebp --enable-libx264 --enable-libx265 --enable-libxml2 --enable-libxvid --enable-lzma --enable-libfontconfig --enable-libfreetype --enable-frei0r --enable-libass --enable-libopencore-amrnb --enable-libopencore-amrwb --enable-libopenjpeg --enable-libspeex --enable-libsoxr --enable-libzmq --enable-libzimg --disable-libjack --disable-indev=jack --enable-avresample --enable-videotoolbox\n",
      "  libavutil      56. 70.100 / 56. 70.100\n",
      "  libavcodec     58.134.100 / 58.134.100\n",
      "  libavformat    58. 76.100 / 58. 76.100\n",
      "  libavdevice    58. 13.100 / 58. 13.100\n",
      "  libavfilter     7.110.100 /  7.110.100\n",
      "  libavresample   4.  0.  0 /  4.  0.  0\n",
      "  libswscale      5.  9.100 /  5.  9.100\n",
      "  libswresample   3.  9.100 /  3.  9.100\n",
      "  libpostproc    55.  9.100 / 55.  9.100\n",
      "Input #0, mp3, from '/Users/louifh/Dev/opensoundscape/docs/tutorials/great_plains_toad_dataset/gpt4.mp3':\n",
      "  Metadata:\n",
      "    comment         : Recorded at 03:20:10 23/06/2019 (UTC) by AudioMoth 0FE081F80FE081F0 at gain setting 2 while battery state was 3.8V\n",
      "    encoder         : Lavf58.20.100\n",
      "  Duration: 00:00:10.03, start: 0.023021, bitrate: 64 kb/s\n",
      "  Stream #0:0: Audio: mp3, 48000 Hz, mono, fltp, 64 kb/s\n",
      "File 'gpt4.wav' already exists. Overwrite? [y/N] Not overwriting - exiting\n",
      "ffmpeg version 4.4.1 Copyright (c) 2000-2021 the FFmpeg developers\n",
      "  built with Apple clang version 13.0.0 (clang-1300.0.29.3)\n",
      "  configuration: --prefix=/opt/homebrew/Cellar/ffmpeg/4.4.1_3 --enable-shared --enable-pthreads --enable-version3 --cc=clang --host-cflags= --host-ldflags= --enable-ffplay --enable-gnutls --enable-gpl --enable-libaom --enable-libbluray --enable-libdav1d --enable-libmp3lame --enable-libopus --enable-librav1e --enable-librist --enable-librubberband --enable-libsnappy --enable-libsrt --enable-libtesseract --enable-libtheora --enable-libvidstab --enable-libvmaf --enable-libvorbis --enable-libvpx --enable-libwebp --enable-libx264 --enable-libx265 --enable-libxml2 --enable-libxvid --enable-lzma --enable-libfontconfig --enable-libfreetype --enable-frei0r --enable-libass --enable-libopencore-amrnb --enable-libopencore-amrwb --enable-libopenjpeg --enable-libspeex --enable-libsoxr --enable-libzmq --enable-libzimg --disable-libjack --disable-indev=jack --enable-avresample --enable-videotoolbox\n",
      "  libavutil      56. 70.100 / 56. 70.100\n",
      "  libavcodec     58.134.100 / 58.134.100\n",
      "  libavformat    58. 76.100 / 58. 76.100\n",
      "  libavdevice    58. 13.100 / 58. 13.100\n",
      "  libavfilter     7.110.100 /  7.110.100\n",
      "  libavresample   4.  0.  0 /  4.  0.  0\n",
      "  libswscale      5.  9.100 /  5.  9.100\n",
      "  libswresample   3.  9.100 /  3.  9.100\n",
      "  libpostproc    55.  9.100 / 55.  9.100\n",
      "Input #0, mp3, from '/Users/louifh/Dev/opensoundscape/docs/tutorials/great_plains_toad_dataset/pops2.mp3':\n",
      "  Metadata:\n",
      "    comment         : Recorded at 02:30:00 18/05/2019 (UTC) by AudioMoth 0FE081F80FE081F0 at gain setting 2 while battery state was 3.8V\n",
      "    encoder         : Lavf58.20.100\n",
      "  Duration: 00:00:10.03, start: 0.023021, bitrate: 64 kb/s\n",
      "  Stream #0:0: Audio: mp3, 48000 Hz, mono, fltp, 64 kb/s\n",
      "File 'pops2.wav' already exists. Overwrite? [y/N] Not overwriting - exiting\n",
      "ffmpeg version 4.4.1 Copyright (c) 2000-2021 the FFmpeg developers\n",
      "  built with Apple clang version 13.0.0 (clang-1300.0.29.3)\n",
      "  configuration: --prefix=/opt/homebrew/Cellar/ffmpeg/4.4.1_3 --enable-shared --enable-pthreads --enable-version3 --cc=clang --host-cflags= --host-ldflags= --enable-ffplay --enable-gnutls --enable-gpl --enable-libaom --enable-libbluray --enable-libdav1d --enable-libmp3lame --enable-libopus --enable-librav1e --enable-librist --enable-librubberband --enable-libsnappy --enable-libsrt --enable-libtesseract --enable-libtheora --enable-libvidstab --enable-libvmaf --enable-libvorbis --enable-libvpx --enable-libwebp --enable-libx264 --enable-libx265 --enable-libxml2 --enable-libxvid --enable-lzma --enable-libfontconfig --enable-libfreetype --enable-frei0r --enable-libass --enable-libopencore-amrnb --enable-libopencore-amrwb --enable-libopenjpeg --enable-libspeex --enable-libsoxr --enable-libzmq --enable-libzimg --disable-libjack --disable-indev=jack --enable-avresample --enable-videotoolbox\n",
      "  libavutil      56. 70.100 / 56. 70.100\n",
      "  libavcodec     58.134.100 / 58.134.100\n",
      "  libavformat    58. 76.100 / 58. 76.100\n",
      "  libavdevice    58. 13.100 / 58. 13.100\n",
      "  libavfilter     7.110.100 /  7.110.100\n",
      "  libavresample   4.  0.  0 /  4.  0.  0\n",
      "  libswscale      5.  9.100 /  5.  9.100\n",
      "  libswresample   3.  9.100 /  3.  9.100\n",
      "  libpostproc    55.  9.100 / 55.  9.100\n",
      "Input #0, mp3, from '/Users/louifh/Dev/opensoundscape/docs/tutorials/great_plains_toad_dataset/gpt1.mp3':\n",
      "  Metadata:\n",
      "    comment         : Recorded at 02:50:04 23/06/2019 (UTC) by AudioMoth 0FE081F80FE081F0 at gain setting 2 while battery state was 3.8V\n",
      "    encoder         : Lavf58.20.100\n",
      "  Duration: 00:00:10.03, start: 0.023021, bitrate: 64 kb/s\n",
      "  Stream #0:0: Audio: mp3, 48000 Hz, mono, fltp, 64 kb/s\n",
      "Stream mapping:\n",
      "  Stream #0:0 -> #0:0 (mp3 (mp3float) -> pcm_s16le (native))\n",
      "Press [q] to stop, [?] for help\n",
      "Output #0, wav, to 'gpt1.wav':\n",
      "  Metadata:\n",
      "    ICMT            : Recorded at 02:50:04 23/06/2019 (UTC) by AudioMoth 0FE081F80FE081F0 at gain setting 2 while battery state was 3.8V\n",
      "    ISFT            : Lavf58.76.100\n",
      "  Stream #0:0: Audio: pcm_s16le ([1][0][0][0] / 0x0001), 48000 Hz, mono, s16, 768 kb/s\n",
      "    Metadata:\n",
      "      encoder         : Lavc58.134.100 pcm_s16le\n",
      "size=     938kB time=00:00:09.98 bitrate= 769.3kbits/s speed=1.89e+03x    \n",
      "video:0kB audio:938kB subtitle:0kB other streams:0kB global headers:0kB muxing overhead: 0.021042%\n",
      "ffmpeg version 4.4.1 Copyright (c) 2000-2021 the FFmpeg developers\n",
      "  built with Apple clang version 13.0.0 (clang-1300.0.29.3)\n",
      "  configuration: --prefix=/opt/homebrew/Cellar/ffmpeg/4.4.1_3 --enable-shared --enable-pthreads --enable-version3 --cc=clang --host-cflags= --host-ldflags= --enable-ffplay --enable-gnutls --enable-gpl --enable-libaom --enable-libbluray --enable-libdav1d --enable-libmp3lame --enable-libopus --enable-librav1e --enable-librist --enable-librubberband --enable-libsnappy --enable-libsrt --enable-libtesseract --enable-libtheora --enable-libvidstab --enable-libvmaf --enable-libvorbis --enable-libvpx --enable-libwebp --enable-libx264 --enable-libx265 --enable-libxml2 --enable-libxvid --enable-lzma --enable-libfontconfig --enable-libfreetype --enable-frei0r --enable-libass --enable-libopencore-amrnb --enable-libopencore-amrwb --enable-libopenjpeg --enable-libspeex --enable-libsoxr --enable-libzmq --enable-libzimg --disable-libjack --disable-indev=jack --enable-avresample --enable-videotoolbox\n",
      "  libavutil      56. 70.100 / 56. 70.100\n",
      "  libavcodec     58.134.100 / 58.134.100\n",
      "  libavformat    58. 76.100 / 58. 76.100\n",
      "  libavdevice    58. 13.100 / 58. 13.100\n",
      "  libavfilter     7.110.100 /  7.110.100\n",
      "  libavresample   4.  0.  0 /  4.  0.  0\n",
      "  libswscale      5.  9.100 /  5.  9.100\n",
      "  libswresample   3.  9.100 /  3.  9.100\n",
      "  libpostproc    55.  9.100 / 55.  9.100\n",
      "Input #0, mp3, from '/Users/louifh/Dev/opensoundscape/docs/tutorials/great_plains_toad_dataset/gpt0.mp3':\n",
      "  Metadata:\n",
      "    compatible_brands: iso6mp41\n",
      "    Software        : Lavf57.56.101\n",
      "    major_brand     : dash\n",
      "    minor_version   : 0\n",
      "  Duration: 00:00:10.06, start: 0.025057, bitrate: 77 kb/s\n",
      "  Stream #0:0: Audio: mp3, 44100 Hz, mono, fltp, 77 kb/s\n",
      "    Metadata:\n",
      "      encoder         : LAME3.99r\n",
      "Stream mapping:\n",
      "  Stream #0:0 -> #0:0 (mp3 (mp3float) -> pcm_s16le (native))\n",
      "Press [q] to stop, [?] for help\n",
      "Output #0, wav, to 'gpt0.wav':\n",
      "  Metadata:\n",
      "    compatible_brands: iso6mp41\n",
      "    Software        : Lavf57.56.101\n",
      "    major_brand     : dash\n",
      "    minor_version   : 0\n",
      "    ISFT            : Lavf58.76.100\n",
      "  Stream #0:0: Audio: pcm_s16le ([1][0][0][0] / 0x0001), 44100 Hz, mono, s16, 705 kb/s\n",
      "    Metadata:\n",
      "      encoder         : Lavc58.134.100 pcm_s16le\n",
      "size=     862kB time=00:00:10.00 bitrate= 706.1kbits/s speed=1.82e+03x    \n",
      "video:0kB audio:862kB subtitle:0kB other streams:0kB global headers:0kB muxing overhead: 0.008833%\n",
      "ffmpeg version 4.4.1 Copyright (c) 2000-2021 the FFmpeg developers\n",
      "  built with Apple clang version 13.0.0 (clang-1300.0.29.3)\n",
      "  configuration: --prefix=/opt/homebrew/Cellar/ffmpeg/4.4.1_3 --enable-shared --enable-pthreads --enable-version3 --cc=clang --host-cflags= --host-ldflags= --enable-ffplay --enable-gnutls --enable-gpl --enable-libaom --enable-libbluray --enable-libdav1d --enable-libmp3lame --enable-libopus --enable-librav1e --enable-librist --enable-librubberband --enable-libsnappy --enable-libsrt --enable-libtesseract --enable-libtheora --enable-libvidstab --enable-libvmaf --enable-libvorbis --enable-libvpx --enable-libwebp --enable-libx264 --enable-libx265 --enable-libxml2 --enable-libxvid --enable-lzma --enable-libfontconfig --enable-libfreetype --enable-frei0r --enable-libass --enable-libopencore-amrnb --enable-libopencore-amrwb --enable-libopenjpeg --enable-libspeex --enable-libsoxr --enable-libzmq --enable-libzimg --disable-libjack --disable-indev=jack --enable-avresample --enable-videotoolbox\n",
      "  libavutil      56. 70.100 / 56. 70.100\n",
      "  libavcodec     58.134.100 / 58.134.100\n",
      "  libavformat    58. 76.100 / 58. 76.100\n",
      "  libavdevice    58. 13.100 / 58. 13.100\n",
      "  libavfilter     7.110.100 /  7.110.100\n",
      "  libavresample   4.  0.  0 /  4.  0.  0\n",
      "  libswscale      5.  9.100 /  5.  9.100\n",
      "  libswresample   3.  9.100 /  3.  9.100\n",
      "  libpostproc    55.  9.100 / 55.  9.100\n",
      "Input #0, mp3, from '/Users/louifh/Dev/opensoundscape/docs/tutorials/great_plains_toad_dataset/negative9.mp3':\n",
      "  Metadata:\n",
      "    comment         : Recorded at 03:05:04 26/05/2019 (UTC) by AudioMoth 0FE081F80FE081F0 at gain setting 2 while battery state was 3.7V\n",
      "    encoder         : Lavf58.20.100\n",
      "  Duration: 00:00:10.03, start: 0.023021, bitrate: 64 kb/s\n",
      "  Stream #0:0: Audio: mp3, 48000 Hz, mono, fltp, 64 kb/s\n",
      "File 'negative9.wav' already exists. Overwrite? [y/N] Not overwriting - exiting\n"
     ]
    },
    {
     "name": "stdout",
     "output_type": "stream",
     "text": [
      "/Users/louifh/Dev/opensoundscape/docs/tutorials/great_plains_toad_dataset/gpt2.mp3\n",
      "/Users/louifh/Dev/opensoundscape/docs/tutorials/great_plains_toad_dataset/gpt3.mp3\n",
      "/Users/louifh/Dev/opensoundscape/docs/tutorials/great_plains_toad_dataset/negative8.mp3\n",
      "/Users/louifh/Dev/opensoundscape/docs/tutorials/great_plains_toad_dataset/water.mp3\n",
      "/Users/louifh/Dev/opensoundscape/docs/tutorials/great_plains_toad_dataset/negative5.mp3\n",
      "/Users/louifh/Dev/opensoundscape/docs/tutorials/great_plains_toad_dataset/negative4.mp3\n",
      "/Users/louifh/Dev/opensoundscape/docs/tutorials/great_plains_toad_dataset/negative6.mp3\n"
     ]
    },
    {
     "name": "stderr",
     "output_type": "stream",
     "text": [
      "ffmpeg version 4.4.1 Copyright (c) 2000-2021 the FFmpeg developers\n",
      "  built with Apple clang version 13.0.0 (clang-1300.0.29.3)\n",
      "  configuration: --prefix=/opt/homebrew/Cellar/ffmpeg/4.4.1_3 --enable-shared --enable-pthreads --enable-version3 --cc=clang --host-cflags= --host-ldflags= --enable-ffplay --enable-gnutls --enable-gpl --enable-libaom --enable-libbluray --enable-libdav1d --enable-libmp3lame --enable-libopus --enable-librav1e --enable-librist --enable-librubberband --enable-libsnappy --enable-libsrt --enable-libtesseract --enable-libtheora --enable-libvidstab --enable-libvmaf --enable-libvorbis --enable-libvpx --enable-libwebp --enable-libx264 --enable-libx265 --enable-libxml2 --enable-libxvid --enable-lzma --enable-libfontconfig --enable-libfreetype --enable-frei0r --enable-libass --enable-libopencore-amrnb --enable-libopencore-amrwb --enable-libopenjpeg --enable-libspeex --enable-libsoxr --enable-libzmq --enable-libzimg --disable-libjack --disable-indev=jack --enable-avresample --enable-videotoolbox\n",
      "  libavutil      56. 70.100 / 56. 70.100\n",
      "  libavcodec     58.134.100 / 58.134.100\n",
      "  libavformat    58. 76.100 / 58. 76.100\n",
      "  libavdevice    58. 13.100 / 58. 13.100\n",
      "  libavfilter     7.110.100 /  7.110.100\n",
      "  libavresample   4.  0.  0 /  4.  0.  0\n",
      "  libswscale      5.  9.100 /  5.  9.100\n",
      "  libswresample   3.  9.100 /  3.  9.100\n",
      "  libpostproc    55.  9.100 / 55.  9.100\n",
      "Input #0, mp3, from '/Users/louifh/Dev/opensoundscape/docs/tutorials/great_plains_toad_dataset/gpt2.mp3':\n",
      "  Metadata:\n",
      "    comment         : Recorded at 03:00:06 23/06/2019 (UTC) by AudioMoth 0FE081F80FE081F0 at gain setting 2 while battery state was 3.8V\n",
      "    encoder         : Lavf58.20.100\n",
      "  Duration: 00:00:10.03, start: 0.023021, bitrate: 64 kb/s\n",
      "  Stream #0:0: Audio: mp3, 48000 Hz, mono, fltp, 64 kb/s\n",
      "File 'gpt2.wav' already exists. Overwrite? [y/N] Not overwriting - exiting\n",
      "ffmpeg version 4.4.1 Copyright (c) 2000-2021 the FFmpeg developers\n",
      "  built with Apple clang version 13.0.0 (clang-1300.0.29.3)\n",
      "  configuration: --prefix=/opt/homebrew/Cellar/ffmpeg/4.4.1_3 --enable-shared --enable-pthreads --enable-version3 --cc=clang --host-cflags= --host-ldflags= --enable-ffplay --enable-gnutls --enable-gpl --enable-libaom --enable-libbluray --enable-libdav1d --enable-libmp3lame --enable-libopus --enable-librav1e --enable-librist --enable-librubberband --enable-libsnappy --enable-libsrt --enable-libtesseract --enable-libtheora --enable-libvidstab --enable-libvmaf --enable-libvorbis --enable-libvpx --enable-libwebp --enable-libx264 --enable-libx265 --enable-libxml2 --enable-libxvid --enable-lzma --enable-libfontconfig --enable-libfreetype --enable-frei0r --enable-libass --enable-libopencore-amrnb --enable-libopencore-amrwb --enable-libopenjpeg --enable-libspeex --enable-libsoxr --enable-libzmq --enable-libzimg --disable-libjack --disable-indev=jack --enable-avresample --enable-videotoolbox\n",
      "  libavutil      56. 70.100 / 56. 70.100\n",
      "  libavcodec     58.134.100 / 58.134.100\n",
      "  libavformat    58. 76.100 / 58. 76.100\n",
      "  libavdevice    58. 13.100 / 58. 13.100\n",
      "  libavfilter     7.110.100 /  7.110.100\n",
      "  libavresample   4.  0.  0 /  4.  0.  0\n",
      "  libswscale      5.  9.100 /  5.  9.100\n",
      "  libswresample   3.  9.100 /  3.  9.100\n",
      "  libpostproc    55.  9.100 / 55.  9.100\n",
      "Input #0, mp3, from '/Users/louifh/Dev/opensoundscape/docs/tutorials/great_plains_toad_dataset/gpt3.mp3':\n",
      "  Metadata:\n",
      "    comment         : Recorded at 03:20:10 23/06/2019 (UTC) by AudioMoth 0FE081F80FE081F0 at gain setting 2 while battery state was 3.8V\n",
      "    encoder         : Lavf58.20.100\n",
      "  Duration: 00:00:10.03, start: 0.023021, bitrate: 64 kb/s\n",
      "  Stream #0:0: Audio: mp3, 48000 Hz, mono, fltp, 64 kb/s\n",
      "File 'gpt3.wav' already exists. Overwrite? [y/N] Not overwriting - exiting\n",
      "ffmpeg version 4.4.1 Copyright (c) 2000-2021 the FFmpeg developers\n",
      "  built with Apple clang version 13.0.0 (clang-1300.0.29.3)\n",
      "  configuration: --prefix=/opt/homebrew/Cellar/ffmpeg/4.4.1_3 --enable-shared --enable-pthreads --enable-version3 --cc=clang --host-cflags= --host-ldflags= --enable-ffplay --enable-gnutls --enable-gpl --enable-libaom --enable-libbluray --enable-libdav1d --enable-libmp3lame --enable-libopus --enable-librav1e --enable-librist --enable-librubberband --enable-libsnappy --enable-libsrt --enable-libtesseract --enable-libtheora --enable-libvidstab --enable-libvmaf --enable-libvorbis --enable-libvpx --enable-libwebp --enable-libx264 --enable-libx265 --enable-libxml2 --enable-libxvid --enable-lzma --enable-libfontconfig --enable-libfreetype --enable-frei0r --enable-libass --enable-libopencore-amrnb --enable-libopencore-amrwb --enable-libopenjpeg --enable-libspeex --enable-libsoxr --enable-libzmq --enable-libzimg --disable-libjack --disable-indev=jack --enable-avresample --enable-videotoolbox\n",
      "  libavutil      56. 70.100 / 56. 70.100\n",
      "  libavcodec     58.134.100 / 58.134.100\n",
      "  libavformat    58. 76.100 / 58. 76.100\n",
      "  libavdevice    58. 13.100 / 58. 13.100\n",
      "  libavfilter     7.110.100 /  7.110.100\n",
      "  libavresample   4.  0.  0 /  4.  0.  0\n",
      "  libswscale      5.  9.100 /  5.  9.100\n",
      "  libswresample   3.  9.100 /  3.  9.100\n",
      "  libpostproc    55.  9.100 / 55.  9.100\n",
      "Input #0, mp3, from '/Users/louifh/Dev/opensoundscape/docs/tutorials/great_plains_toad_dataset/negative8.mp3':\n",
      "  Metadata:\n",
      "    comment         : Recorded at 03:05:04 26/05/2019 (UTC) by AudioMoth 0FE081F80FE081F0 at gain setting 2 while battery state was 3.8V\n",
      "    encoder         : Lavf58.20.100\n",
      "  Duration: 00:00:10.03, start: 0.023021, bitrate: 64 kb/s\n",
      "  Stream #0:0: Audio: mp3, 48000 Hz, mono, fltp, 64 kb/s\n",
      "File 'negative8.wav' already exists. Overwrite? [y/N] Not overwriting - exiting\n",
      "ffmpeg version 4.4.1 Copyright (c) 2000-2021 the FFmpeg developers\n",
      "  built with Apple clang version 13.0.0 (clang-1300.0.29.3)\n",
      "  configuration: --prefix=/opt/homebrew/Cellar/ffmpeg/4.4.1_3 --enable-shared --enable-pthreads --enable-version3 --cc=clang --host-cflags= --host-ldflags= --enable-ffplay --enable-gnutls --enable-gpl --enable-libaom --enable-libbluray --enable-libdav1d --enable-libmp3lame --enable-libopus --enable-librav1e --enable-librist --enable-librubberband --enable-libsnappy --enable-libsrt --enable-libtesseract --enable-libtheora --enable-libvidstab --enable-libvmaf --enable-libvorbis --enable-libvpx --enable-libwebp --enable-libx264 --enable-libx265 --enable-libxml2 --enable-libxvid --enable-lzma --enable-libfontconfig --enable-libfreetype --enable-frei0r --enable-libass --enable-libopencore-amrnb --enable-libopencore-amrwb --enable-libopenjpeg --enable-libspeex --enable-libsoxr --enable-libzmq --enable-libzimg --disable-libjack --disable-indev=jack --enable-avresample --enable-videotoolbox\n",
      "  libavutil      56. 70.100 / 56. 70.100\n",
      "  libavcodec     58.134.100 / 58.134.100\n",
      "  libavformat    58. 76.100 / 58. 76.100\n",
      "  libavdevice    58. 13.100 / 58. 13.100\n",
      "  libavfilter     7.110.100 /  7.110.100\n",
      "  libavresample   4.  0.  0 /  4.  0.  0\n",
      "  libswscale      5.  9.100 /  5.  9.100\n",
      "  libswresample   3.  9.100 /  3.  9.100\n",
      "  libpostproc    55.  9.100 / 55.  9.100\n",
      "Input #0, mp3, from '/Users/louifh/Dev/opensoundscape/docs/tutorials/great_plains_toad_dataset/water.mp3':\n",
      "  Metadata:\n",
      "    comment         : Recorded at 03:10:08 19/05/2019 (UTC) by AudioMoth 0FE081F80FE081F0 at gain setting 2 while battery state was 3.7V\n",
      "    encoder         : Lavf58.20.100\n",
      "  Duration: 00:00:10.03, start: 0.023021, bitrate: 64 kb/s\n",
      "  Stream #0:0: Audio: mp3, 48000 Hz, mono, fltp, 64 kb/s\n",
      "File 'water.wav' already exists. Overwrite? [y/N] Not overwriting - exiting\n",
      "ffmpeg version 4.4.1 Copyright (c) 2000-2021 the FFmpeg developers\n",
      "  built with Apple clang version 13.0.0 (clang-1300.0.29.3)\n",
      "  configuration: --prefix=/opt/homebrew/Cellar/ffmpeg/4.4.1_3 --enable-shared --enable-pthreads --enable-version3 --cc=clang --host-cflags= --host-ldflags= --enable-ffplay --enable-gnutls --enable-gpl --enable-libaom --enable-libbluray --enable-libdav1d --enable-libmp3lame --enable-libopus --enable-librav1e --enable-librist --enable-librubberband --enable-libsnappy --enable-libsrt --enable-libtesseract --enable-libtheora --enable-libvidstab --enable-libvmaf --enable-libvorbis --enable-libvpx --enable-libwebp --enable-libx264 --enable-libx265 --enable-libxml2 --enable-libxvid --enable-lzma --enable-libfontconfig --enable-libfreetype --enable-frei0r --enable-libass --enable-libopencore-amrnb --enable-libopencore-amrwb --enable-libopenjpeg --enable-libspeex --enable-libsoxr --enable-libzmq --enable-libzimg --disable-libjack --disable-indev=jack --enable-avresample --enable-videotoolbox\n",
      "  libavutil      56. 70.100 / 56. 70.100\n",
      "  libavcodec     58.134.100 / 58.134.100\n",
      "  libavformat    58. 76.100 / 58. 76.100\n",
      "  libavdevice    58. 13.100 / 58. 13.100\n",
      "  libavfilter     7.110.100 /  7.110.100\n",
      "  libavresample   4.  0.  0 /  4.  0.  0\n",
      "  libswscale      5.  9.100 /  5.  9.100\n",
      "  libswresample   3.  9.100 /  3.  9.100\n",
      "  libpostproc    55.  9.100 / 55.  9.100\n",
      "Input #0, mp3, from '/Users/louifh/Dev/opensoundscape/docs/tutorials/great_plains_toad_dataset/negative5.mp3':\n",
      "  Metadata:\n",
      "    comment         : Recorded at 03:05:04 28/05/2019 (UTC) by AudioMoth 0FE081F80FE081F0 at gain setting 2 while battery state was 3.7V\n",
      "    encoder         : Lavf58.20.100\n",
      "  Duration: 00:00:10.03, start: 0.023021, bitrate: 64 kb/s\n",
      "  Stream #0:0: Audio: mp3, 48000 Hz, mono, fltp, 64 kb/s\n",
      "File 'negative5.wav' already exists. Overwrite? [y/N] Not overwriting - exiting\n",
      "ffmpeg version 4.4.1 Copyright (c) 2000-2021 the FFmpeg developers\n",
      "  built with Apple clang version 13.0.0 (clang-1300.0.29.3)\n",
      "  configuration: --prefix=/opt/homebrew/Cellar/ffmpeg/4.4.1_3 --enable-shared --enable-pthreads --enable-version3 --cc=clang --host-cflags= --host-ldflags= --enable-ffplay --enable-gnutls --enable-gpl --enable-libaom --enable-libbluray --enable-libdav1d --enable-libmp3lame --enable-libopus --enable-librav1e --enable-librist --enable-librubberband --enable-libsnappy --enable-libsrt --enable-libtesseract --enable-libtheora --enable-libvidstab --enable-libvmaf --enable-libvorbis --enable-libvpx --enable-libwebp --enable-libx264 --enable-libx265 --enable-libxml2 --enable-libxvid --enable-lzma --enable-libfontconfig --enable-libfreetype --enable-frei0r --enable-libass --enable-libopencore-amrnb --enable-libopencore-amrwb --enable-libopenjpeg --enable-libspeex --enable-libsoxr --enable-libzmq --enable-libzimg --disable-libjack --disable-indev=jack --enable-avresample --enable-videotoolbox\n",
      "  libavutil      56. 70.100 / 56. 70.100\n",
      "  libavcodec     58.134.100 / 58.134.100\n",
      "  libavformat    58. 76.100 / 58. 76.100\n",
      "  libavdevice    58. 13.100 / 58. 13.100\n",
      "  libavfilter     7.110.100 /  7.110.100\n",
      "  libavresample   4.  0.  0 /  4.  0.  0\n",
      "  libswscale      5.  9.100 /  5.  9.100\n",
      "  libswresample   3.  9.100 /  3.  9.100\n",
      "  libpostproc    55.  9.100 / 55.  9.100\n",
      "Input #0, mp3, from '/Users/louifh/Dev/opensoundscape/docs/tutorials/great_plains_toad_dataset/negative4.mp3':\n",
      "  Metadata:\n",
      "    comment         : Recorded at 03:05:04 29/05/2019 (UTC) by AudioMoth 0FE081F80FE081F0 at gain setting 2 while battery state was 3.7V\n",
      "    encoder         : Lavf58.20.100\n",
      "  Duration: 00:00:10.03, start: 0.023021, bitrate: 64 kb/s\n",
      "  Stream #0:0: Audio: mp3, 48000 Hz, mono, fltp, 64 kb/s\n",
      "File 'negative4.wav' already exists. Overwrite? [y/N] Not overwriting - exiting\n",
      "ffmpeg version 4.4.1 Copyright (c) 2000-2021 the FFmpeg developers\n",
      "  built with Apple clang version 13.0.0 (clang-1300.0.29.3)\n",
      "  configuration: --prefix=/opt/homebrew/Cellar/ffmpeg/4.4.1_3 --enable-shared --enable-pthreads --enable-version3 --cc=clang --host-cflags= --host-ldflags= --enable-ffplay --enable-gnutls --enable-gpl --enable-libaom --enable-libbluray --enable-libdav1d --enable-libmp3lame --enable-libopus --enable-librav1e --enable-librist --enable-librubberband --enable-libsnappy --enable-libsrt --enable-libtesseract --enable-libtheora --enable-libvidstab --enable-libvmaf --enable-libvorbis --enable-libvpx --enable-libwebp --enable-libx264 --enable-libx265 --enable-libxml2 --enable-libxvid --enable-lzma --enable-libfontconfig --enable-libfreetype --enable-frei0r --enable-libass --enable-libopencore-amrnb --enable-libopencore-amrwb --enable-libopenjpeg --enable-libspeex --enable-libsoxr --enable-libzmq --enable-libzimg --disable-libjack --disable-indev=jack --enable-avresample --enable-videotoolbox\n",
      "  libavutil      56. 70.100 / 56. 70.100\n",
      "  libavcodec     58.134.100 / 58.134.100\n",
      "  libavformat    58. 76.100 / 58. 76.100\n",
      "  libavdevice    58. 13.100 / 58. 13.100\n",
      "  libavfilter     7.110.100 /  7.110.100\n",
      "  libavresample   4.  0.  0 /  4.  0.  0\n",
      "  libswscale      5.  9.100 /  5.  9.100\n",
      "  libswresample   3.  9.100 /  3.  9.100\n",
      "  libpostproc    55.  9.100 / 55.  9.100\n",
      "Input #0, mp3, from '/Users/louifh/Dev/opensoundscape/docs/tutorials/great_plains_toad_dataset/negative6.mp3':\n",
      "  Metadata:\n",
      "    comment         : Recorded at 03:05:04 28/05/2019 (UTC) by AudioMoth 0FE081F80FE081F0 at gain setting 2 while battery state was 3.7V\n",
      "    encoder         : Lavf58.20.100\n",
      "  Duration: 00:00:10.03, start: 0.023021, bitrate: 64 kb/s\n",
      "  Stream #0:0: Audio: mp3, 48000 Hz, mono, fltp, 64 kb/s\n",
      "File 'negative6.wav' already exists. Overwrite? [y/N] Not overwriting - exiting\n"
     ]
    },
    {
     "name": "stdout",
     "output_type": "stream",
     "text": [
      "/Users/louifh/Dev/opensoundscape/docs/tutorials/great_plains_toad_dataset/silent.mp3\n",
      "/Users/louifh/Dev/opensoundscape/docs/tutorials/great_plains_toad_dataset/negative7.mp3\n",
      "/Users/louifh/Dev/opensoundscape/docs/tutorials/great_plains_toad_dataset/negative3.mp3\n",
      "/Users/louifh/Dev/opensoundscape/docs/tutorials/great_plains_toad_dataset/negative2.mp3\n",
      "/Users/louifh/Dev/opensoundscape/docs/tutorials/great_plains_toad_dataset/negative1.mp3\n"
     ]
    },
    {
     "name": "stderr",
     "output_type": "stream",
     "text": [
      "ffmpeg version 4.4.1 Copyright (c) 2000-2021 the FFmpeg developers\n",
      "  built with Apple clang version 13.0.0 (clang-1300.0.29.3)\n",
      "  configuration: --prefix=/opt/homebrew/Cellar/ffmpeg/4.4.1_3 --enable-shared --enable-pthreads --enable-version3 --cc=clang --host-cflags= --host-ldflags= --enable-ffplay --enable-gnutls --enable-gpl --enable-libaom --enable-libbluray --enable-libdav1d --enable-libmp3lame --enable-libopus --enable-librav1e --enable-librist --enable-librubberband --enable-libsnappy --enable-libsrt --enable-libtesseract --enable-libtheora --enable-libvidstab --enable-libvmaf --enable-libvorbis --enable-libvpx --enable-libwebp --enable-libx264 --enable-libx265 --enable-libxml2 --enable-libxvid --enable-lzma --enable-libfontconfig --enable-libfreetype --enable-frei0r --enable-libass --enable-libopencore-amrnb --enable-libopencore-amrwb --enable-libopenjpeg --enable-libspeex --enable-libsoxr --enable-libzmq --enable-libzimg --disable-libjack --disable-indev=jack --enable-avresample --enable-videotoolbox\n",
      "  libavutil      56. 70.100 / 56. 70.100\n",
      "  libavcodec     58.134.100 / 58.134.100\n",
      "  libavformat    58. 76.100 / 58. 76.100\n",
      "  libavdevice    58. 13.100 / 58. 13.100\n",
      "  libavfilter     7.110.100 /  7.110.100\n",
      "  libavresample   4.  0.  0 /  4.  0.  0\n",
      "  libswscale      5.  9.100 /  5.  9.100\n",
      "  libswresample   3.  9.100 /  3.  9.100\n",
      "  libpostproc    55.  9.100 / 55.  9.100\n",
      "Input #0, mp3, from '/Users/louifh/Dev/opensoundscape/docs/tutorials/great_plains_toad_dataset/silent.mp3':\n",
      "  Metadata:\n",
      "    comment         : Recorded at 03:05:04 25/05/2019 (UTC) by AudioMoth 0FE081F80FE081F0 at gain setting 2 while battery state was 3.8V\n",
      "    encoder         : Lavf58.20.100\n",
      "  Duration: 00:00:10.03, start: 0.023021, bitrate: 64 kb/s\n",
      "  Stream #0:0: Audio: mp3, 48000 Hz, mono, fltp, 64 kb/s\n",
      "File 'silent.wav' already exists. Overwrite? [y/N] Not overwriting - exiting\n",
      "ffmpeg version 4.4.1 Copyright (c) 2000-2021 the FFmpeg developers\n",
      "  built with Apple clang version 13.0.0 (clang-1300.0.29.3)\n",
      "  configuration: --prefix=/opt/homebrew/Cellar/ffmpeg/4.4.1_3 --enable-shared --enable-pthreads --enable-version3 --cc=clang --host-cflags= --host-ldflags= --enable-ffplay --enable-gnutls --enable-gpl --enable-libaom --enable-libbluray --enable-libdav1d --enable-libmp3lame --enable-libopus --enable-librav1e --enable-librist --enable-librubberband --enable-libsnappy --enable-libsrt --enable-libtesseract --enable-libtheora --enable-libvidstab --enable-libvmaf --enable-libvorbis --enable-libvpx --enable-libwebp --enable-libx264 --enable-libx265 --enable-libxml2 --enable-libxvid --enable-lzma --enable-libfontconfig --enable-libfreetype --enable-frei0r --enable-libass --enable-libopencore-amrnb --enable-libopencore-amrwb --enable-libopenjpeg --enable-libspeex --enable-libsoxr --enable-libzmq --enable-libzimg --disable-libjack --disable-indev=jack --enable-avresample --enable-videotoolbox\n",
      "  libavutil      56. 70.100 / 56. 70.100\n",
      "  libavcodec     58.134.100 / 58.134.100\n",
      "  libavformat    58. 76.100 / 58. 76.100\n",
      "  libavdevice    58. 13.100 / 58. 13.100\n",
      "  libavfilter     7.110.100 /  7.110.100\n",
      "  libavresample   4.  0.  0 /  4.  0.  0\n",
      "  libswscale      5.  9.100 /  5.  9.100\n",
      "  libswresample   3.  9.100 /  3.  9.100\n",
      "  libpostproc    55.  9.100 / 55.  9.100\n",
      "Input #0, mp3, from '/Users/louifh/Dev/opensoundscape/docs/tutorials/great_plains_toad_dataset/negative7.mp3':\n",
      "  Metadata:\n",
      "    comment         : Recorded at 03:05:04 26/05/2019 (UTC) by AudioMoth 0FE081F80FE081F0 at gain setting 2 while battery state was 3.8V\n",
      "    encoder         : Lavf58.20.100\n",
      "  Duration: 00:00:10.03, start: 0.023021, bitrate: 64 kb/s\n",
      "  Stream #0:0: Audio: mp3, 48000 Hz, mono, fltp, 64 kb/s\n",
      "File 'negative7.wav' already exists. Overwrite? [y/N] Not overwriting - exiting\n",
      "ffmpeg version 4.4.1 Copyright (c) 2000-2021 the FFmpeg developers\n",
      "  built with Apple clang version 13.0.0 (clang-1300.0.29.3)\n",
      "  configuration: --prefix=/opt/homebrew/Cellar/ffmpeg/4.4.1_3 --enable-shared --enable-pthreads --enable-version3 --cc=clang --host-cflags= --host-ldflags= --enable-ffplay --enable-gnutls --enable-gpl --enable-libaom --enable-libbluray --enable-libdav1d --enable-libmp3lame --enable-libopus --enable-librav1e --enable-librist --enable-librubberband --enable-libsnappy --enable-libsrt --enable-libtesseract --enable-libtheora --enable-libvidstab --enable-libvmaf --enable-libvorbis --enable-libvpx --enable-libwebp --enable-libx264 --enable-libx265 --enable-libxml2 --enable-libxvid --enable-lzma --enable-libfontconfig --enable-libfreetype --enable-frei0r --enable-libass --enable-libopencore-amrnb --enable-libopencore-amrwb --enable-libopenjpeg --enable-libspeex --enable-libsoxr --enable-libzmq --enable-libzimg --disable-libjack --disable-indev=jack --enable-avresample --enable-videotoolbox\n",
      "  libavutil      56. 70.100 / 56. 70.100\n",
      "  libavcodec     58.134.100 / 58.134.100\n",
      "  libavformat    58. 76.100 / 58. 76.100\n",
      "  libavdevice    58. 13.100 / 58. 13.100\n",
      "  libavfilter     7.110.100 /  7.110.100\n",
      "  libavresample   4.  0.  0 /  4.  0.  0\n",
      "  libswscale      5.  9.100 /  5.  9.100\n",
      "  libswresample   3.  9.100 /  3.  9.100\n",
      "  libpostproc    55.  9.100 / 55.  9.100\n",
      "Input #0, mp3, from '/Users/louifh/Dev/opensoundscape/docs/tutorials/great_plains_toad_dataset/negative3.mp3':\n",
      "  Metadata:\n",
      "    comment         : Recorded at 03:05:04 30/05/2019 (UTC) by AudioMoth 0FE081F80FE081F0 at gain setting 2 while battery state was 3.7V\n",
      "    encoder         : Lavf58.20.100\n",
      "  Duration: 00:00:10.03, start: 0.023021, bitrate: 64 kb/s\n",
      "  Stream #0:0: Audio: mp3, 48000 Hz, mono, fltp, 64 kb/s\n",
      "File 'negative3.wav' already exists. Overwrite? [y/N] Not overwriting - exiting\n",
      "ffmpeg version 4.4.1 Copyright (c) 2000-2021 the FFmpeg developers\n",
      "  built with Apple clang version 13.0.0 (clang-1300.0.29.3)\n",
      "  configuration: --prefix=/opt/homebrew/Cellar/ffmpeg/4.4.1_3 --enable-shared --enable-pthreads --enable-version3 --cc=clang --host-cflags= --host-ldflags= --enable-ffplay --enable-gnutls --enable-gpl --enable-libaom --enable-libbluray --enable-libdav1d --enable-libmp3lame --enable-libopus --enable-librav1e --enable-librist --enable-librubberband --enable-libsnappy --enable-libsrt --enable-libtesseract --enable-libtheora --enable-libvidstab --enable-libvmaf --enable-libvorbis --enable-libvpx --enable-libwebp --enable-libx264 --enable-libx265 --enable-libxml2 --enable-libxvid --enable-lzma --enable-libfontconfig --enable-libfreetype --enable-frei0r --enable-libass --enable-libopencore-amrnb --enable-libopencore-amrwb --enable-libopenjpeg --enable-libspeex --enable-libsoxr --enable-libzmq --enable-libzimg --disable-libjack --disable-indev=jack --enable-avresample --enable-videotoolbox\n",
      "  libavutil      56. 70.100 / 56. 70.100\n",
      "  libavcodec     58.134.100 / 58.134.100\n",
      "  libavformat    58. 76.100 / 58. 76.100\n",
      "  libavdevice    58. 13.100 / 58. 13.100\n",
      "  libavfilter     7.110.100 /  7.110.100\n",
      "  libavresample   4.  0.  0 /  4.  0.  0\n",
      "  libswscale      5.  9.100 /  5.  9.100\n",
      "  libswresample   3.  9.100 /  3.  9.100\n",
      "  libpostproc    55.  9.100 / 55.  9.100\n",
      "Input #0, mp3, from '/Users/louifh/Dev/opensoundscape/docs/tutorials/great_plains_toad_dataset/negative2.mp3':\n",
      "  Metadata:\n",
      "    comment         : Recorded at 03:05:04 26/05/2019 (UTC) by AudioMoth 0FE081F80FE081F0 at gain setting 2 while battery state was 3.8V\n",
      "    encoder         : Lavf58.20.100\n",
      "  Duration: 00:00:10.03, start: 0.023021, bitrate: 64 kb/s\n",
      "  Stream #0:0: Audio: mp3, 48000 Hz, mono, fltp, 64 kb/s\n",
      "File 'negative2.wav' already exists. Overwrite? [y/N] Not overwriting - exiting\n",
      "ffmpeg version 4.4.1 Copyright (c) 2000-2021 the FFmpeg developers\n",
      "  built with Apple clang version 13.0.0 (clang-1300.0.29.3)\n",
      "  configuration: --prefix=/opt/homebrew/Cellar/ffmpeg/4.4.1_3 --enable-shared --enable-pthreads --enable-version3 --cc=clang --host-cflags= --host-ldflags= --enable-ffplay --enable-gnutls --enable-gpl --enable-libaom --enable-libbluray --enable-libdav1d --enable-libmp3lame --enable-libopus --enable-librav1e --enable-librist --enable-librubberband --enable-libsnappy --enable-libsrt --enable-libtesseract --enable-libtheora --enable-libvidstab --enable-libvmaf --enable-libvorbis --enable-libvpx --enable-libwebp --enable-libx264 --enable-libx265 --enable-libxml2 --enable-libxvid --enable-lzma --enable-libfontconfig --enable-libfreetype --enable-frei0r --enable-libass --enable-libopencore-amrnb --enable-libopencore-amrwb --enable-libopenjpeg --enable-libspeex --enable-libsoxr --enable-libzmq --enable-libzimg --disable-libjack --disable-indev=jack --enable-avresample --enable-videotoolbox\n",
      "  libavutil      56. 70.100 / 56. 70.100\n",
      "  libavcodec     58.134.100 / 58.134.100\n",
      "  libavformat    58. 76.100 / 58. 76.100\n",
      "  libavdevice    58. 13.100 / 58. 13.100\n",
      "  libavfilter     7.110.100 /  7.110.100\n",
      "  libavresample   4.  0.  0 /  4.  0.  0\n",
      "  libswscale      5.  9.100 /  5.  9.100\n",
      "  libswresample   3.  9.100 /  3.  9.100\n",
      "  libpostproc    55.  9.100 / 55.  9.100\n",
      "Input #0, mp3, from '/Users/louifh/Dev/opensoundscape/docs/tutorials/great_plains_toad_dataset/negative1.mp3':\n",
      "  Metadata:\n",
      "    comment         : Recorded at 03:05:04 28/05/2019 (UTC) by AudioMoth 0FE081F80FE081F0 at gain setting 2 while battery state was 3.7V\n",
      "    encoder         : Lavf58.20.100\n",
      "  Duration: 00:00:07.03, start: 0.023021, bitrate: 64 kb/s\n",
      "  Stream #0:0: Audio: mp3, 48000 Hz, mono, fltp, 64 kb/s\n",
      "File 'negative1.wav' already exists. Overwrite? [y/N] Not overwriting - exiting\n"
     ]
    }
   ],
   "source": [
    "files = folder.glob(\"*.mp3\")\n",
    "for file in files:\n",
    "    print(file)\n",
    "    name = file.stem\n",
    "    subprocess.run([\"ffmpeg\", \n",
    "                    \"-i\", f\"{file}\", f\"{name}.wav\"])"
   ]
  },
  {
   "cell_type": "code",
   "execution_count": null,
   "id": "62e2fb23-6ae3-4e27-a06b-1e1fe6d38db8",
   "metadata": {},
   "outputs": [],
   "source": []
  }
 ],
 "metadata": {
  "kernelspec": {
   "display_name": "opso_poetry_py38",
   "language": "python",
   "name": "opso_poetry_py38"
  },
  "language_info": {
   "codemirror_mode": {
    "name": "ipython",
    "version": 3
   },
   "file_extension": ".py",
   "mimetype": "text/x-python",
   "name": "python",
   "nbconvert_exporter": "python",
   "pygments_lexer": "ipython3",
   "version": "3.8.12"
  }
 },
 "nbformat": 4,
 "nbformat_minor": 5
}
